<?xml version="1.0" encoding="utf-8"?>
<!-- Generator: Adobe Illustrator 16.0.0, SVG Export Plug-In . SVG Version: 6.00 Build 0)  -->
<!DOCTYPE svg PUBLIC "-//W3C//DTD SVG 1.1//EN" "http://www.w3.org/Graphics/SVG/1.1/DTD/svg11.dtd">
<svg version="1.1" id="Layer_1" xmlns="http://www.w3.org/2000/svg" xmlns:xlink="http://www.w3.org/1999/xlink" x="0px" y="0px"
	 width="612px" height="792px" viewBox="0 0 612 792" enable-background="new 0 0 612 792" xml:space="preserve">
<title  id="simpleicons-linkedin-icon">LinkedIn icon</title>
<path fill="#0077B5" d="M521.398,611.526h-90.627v-142.01c0-33.864-0.688-77.443-47.226-77.443
	c-47.252,0-54.469,36.848-54.469,74.944v144.509h-90.626V319.5h87.057v39.806h1.173c12.163-22.95,41.743-47.175,85.935-47.175
	c91.826,0,108.809,60.435,108.809,139.103v160.293H521.398z M136.093,279.542c-29.172,0-52.606-23.613-52.606-52.658
	c0-29.019,23.46-52.606,52.606-52.606c29.07,0,52.632,23.588,52.632,52.606C188.726,255.929,165.138,279.542,136.093,279.542z
	 M181.535,611.526H90.652V319.5h90.882V611.526z M566.737,90H45.161C20.196,90,0,109.737,0,134.089V657.91
	C0,682.288,20.196,702,45.161,702h521.5C591.6,702,612,682.288,612,657.91V134.089C612,109.737,591.6,90,566.661,90H566.737z"/>
</svg>
