<?xml version="1.0" encoding="UTF-8"?>
<svg width="212px" height="197px" viewBox="0 0 212 197" version="1.1" xmlns="http://www.w3.org/2000/svg" xmlns:xlink="http://www.w3.org/1999/xlink">
    <title>openid-logo</title>
    <g id="Page-1" stroke="none" stroke-width="1" fill="none" fill-rule="evenodd">
        <g id="openid-logo" transform="translate(0.021000, 0.460100)" fill-rule="nonzero">
            <polygon id="Path" fill="#F7941B" transform="translate(112.000000, 97.816500) scale(-1, 1) rotate(-180.000000) translate(-112.000000, -97.816500) " points="96 180 96 20.0609 96 0 128 15.0609 128 195.633"></polygon>
            <polyline id="Path" fill="#BCBEC0" transform="translate(180.297800, 91.364800) scale(-1, 1) rotate(-180.000000) translate(-180.297800, -91.364800) " points="206.8223 114.2968 211.2393 68.4328 149.3563 81.8968"></polyline>
            <path d="M32,127.7102 C32,150.3842 56.707,169.4792 90.383,175.3082 L90.383,195.6332 C38.873,189.4072 1.42108547e-14,161.3662 1.42108547e-14,127.7102 C1.42108547e-14,92.8412 41.725,64.0012 96,59.2022 L96,79.2632 C59.484,83.8412 32,103.7912 32,127.7102 M133.617,195.6252 L133.617,175.3082 C147.016,172.9892 159.002,168.5812 168.5681,162.6682 L191.195,176.6522 C175.775,186.1832 155.873,192.9352 133.617,195.6252" id="Shape" fill="#BCBEC0" transform="translate(95.597500, 127.417700) scale(-1, 1) rotate(-180.000000) translate(-95.597500, -127.417700) "></path>
            <polygon id="Path" fill="#F7941B" transform="translate(112.000000, 97.816500) scale(-1, 1) rotate(-180.000000) translate(-112.000000, -97.816500) " points="96 180 96 20.0609 96 0 128 15.0609 128 195.633"></polygon>
            <polyline id="Path" fill="#BCBEC0" transform="translate(180.297800, 91.364800) scale(-1, 1) rotate(-180.000000) translate(-180.297800, -91.364800) " points="206.8223 114.2968 211.2393 68.4328 149.3563 81.8968"></polyline>
            <path d="M32,127.7102 C32,150.3842 56.707,169.4792 90.383,175.3082 L90.383,195.6332 C38.873,189.4072 1.42108547e-14,161.3662 1.42108547e-14,127.7102 C1.42108547e-14,92.8412 41.725,64.0012 96,59.2022 L96,79.2632 C59.484,83.8412 32,103.7912 32,127.7102 M133.617,195.6252 L133.617,175.3082 C147.016,172.9892 159.002,168.5812 168.5681,162.6682 L191.195,176.6522 C175.775,186.1832 155.873,192.9352 133.617,195.6252" id="Shape" fill="#BCBEC0" transform="translate(95.597500, 127.417700) scale(-1, 1) rotate(-180.000000) translate(-95.597500, -127.417700) "></path>
        </g>
    </g>
</svg>