<svg xmlns="http://www.w3.org/2000/svg" xmlns:xlink="http://www.w3.org/1999/xlink" height="256" width="225" viewBox="0 0 36 40.96">
  <defs>
    <linearGradient id="prefix__a">
      <stop offset="0" stop-color="#036" stop-opacity="0"/>
      <stop offset="1" stop-color="#036" stop-opacity=".4"/>
    </linearGradient>
    <linearGradient xlink:href="#prefix__a" id="prefix__b" x1="6" y1="25.5" x2="42.001" y2="25.5" gradientUnits="userSpaceOnUse"/>
  </defs>
  <g transform="translate(-6 -5.04)" fill="url(#prefix__b)">
    <path d="M7.086 19.752l2.138 2.15c-.154-2.562-.414-6.813-.539-8.833-.002-.02.006-.037.007-.056-.902.049-1.859.097-2.692.135v5.847c.404.298.807.567 1.021.705a.362.362 0 01.065.052zM7.421 28.029c.028-.015.107-.122.165-.201.068-.092.148-.2.253-.325.3-.358.631-.978.967-1.784a.384.384 0 01.029-.218c.003-.007.31-.634.313-1.513a3.094 3.094 0 00-.41-1.496l-2.162-2.175A22.61 22.61 0 016 19.93v7.823c.289.06.633.133.979.215.356.087.431.064.442.061zM10.769 5H6v7.388c1.897-.088 4.456-.231 5.425-.286z"/>
    <path d="M13.077 33.58c.533-.121 2.151-1.15 3.031-1.806.722-.538 3.882-3.242 4.341-3.637.2-.388.494-1.04.525-1.33.031-.303-.124-2.287-.249-3.714-.475-.078-.664-.267-.719-.35a.38.38 0 01-.061-.179l-.145-1.805-9.84.713c.085 1.417.146 2.452.146 2.52 0 .225-.044.596-.374 1.468-.445 1.174-.886 2.026-1.31 2.533-.093.109-.163.205-.223.287-.364.494-.606.617-1.397.429a29.494 29.494 0 00-.802-.18v3.436c1.678.678 3.652 1.447 4.003 1.502.706.112 2.53.238 3.074.113zM8.264 37.926c.807-.358 2.002-.939 2.22-1.156.142-.141.294-.692.377-1.212L6 34.316v3.748l1.403-.006z"/>
    <path d="M17.567 33.134c1.524-1.327 3.361-3.092 3.795-3.831.326-.554.987-2.425 1.412-3.687l-.194-2.686c-.297.051-.718.119-1.091.159.096 1.096.285 3.372.241 3.797-.057.552-.582 1.558-.641 1.671a.37.37 0 01-.09.111c-.147.127-3.641 3.123-4.437 3.716-.61.456-2.532 1.76-3.318 1.938-.218.05-.554.069-.934.069-.869 0-1.971-.101-2.427-.172-.445-.071-2.453-.859-3.883-1.433v.752l7.54 1.919c.564-.267 3.02-1.446 4.027-2.323zM8.781 44.986l2.461-3.557.789-.795a.38.38 0 01.118-.08l2.258-.968-.507-1.536c-.836.161-1.87.488-3.445 1.042l-.878.734a.315.315 0 01-.091.056l-1.338.591c-.015.013-1.426.881-2.042 1.136-.031.012-.072.037-.106.053v1.564l2.774 1.771.007-.011zM8.496 45.725L6 44.13V46h2.397l.099-.275zM22.049 5l1.342 18.584 1.665-5.855L24.165 5zM6.991 39.519l1.63-.92-.097.043a.3.3 0 01-.097.028l-.966.146L6 38.822v1.108c.307-.126.623-.252.952-.378.014-.01.024-.025.039-.033zM41.063 5l.095 1.29.842-.066V5zM39.287 16.607c.083.768.309 3.002.369 3.611l.72.597c.066.054.111.13.13.214l.13.612.097.13c.05.066.076.146.076.23l-.004 1.238a.381.381 0 01-.271.363l-1.86.556-.004 1.491.482.026 2.671.405a8.2 8.2 0 01.178-1.145V14.38c-.604.291-1.438.682-2.612 1.223-.06.141-.16.473-.102 1.004z"/>
    <path d="M13.986 42.638l-1.744-1.14-.419.417-2.39 3.464-.012.032.923.589h1.372l1.389-2.294zM41.675 13.261c.001.008-.003.016-.003.023l.186-.002.143-.062V6.986l-.786.063zM24.956 5l.192 2.561 1.73-.138L26.705 5zM38.133 26.401c-.191.107-.672.426-1.039.669-.847.561-1.237.813-1.416.872-.141.046-.29.062-.427.062-.181 0-.338-.027-.421-.044-.239.006-1.234.022-1.858-.172-.115-.035-1.323-.244-1.323-.244-.729-.082-1.543-.133-1.959-.163a.37.37 0 01-.148-.035l-4.545-2.396-1.506 3.069c.021.521.082 2.87-.423 3.943-.497 1.059-.965 1.598-1.896 2.67-.595.686-1.394 1.606-2.52 3.034.07.013.141.024.211.036l.187.031c3.002.486 6.156.495 8.581-.002a10.894 10.894 0 012.097-.207l.397.843c-.477.051-.95.123-1.436.182-.253.03-.578.025-.81.14-.469.23-6.547.598-6.547.598l-.147 3.112 6.633-.304c.441-.153 1.389-.447 1.843-.276.262.1 1.457.315 2.151.43-.008-.004.697-.016 1.3-.228.545-.193 2.255-1.113 2.869-1.451L42 38.105v-4.172c-.55.226-1.17.533-1.792.956-1.593 1.083-4.108 2.505-6.153 3.108l.444-.944c1.822-.66 3.904-1.856 5.281-2.793A10.66 10.66 0 0142 33.113v-4.106a11.923 11.923 0 01-.211-2.16s-3.609-.425-3.656-.446zm-3.325 7.648l-2.134 4.535A.748.748 0 0132 39a.734.734 0 01-.668-.416l-2.139-4.535C29.041 33.727 29 33.357 29 33a3 3 0 116 0c0 .357-.04.727-.192 1.049zM27.469 5l.169 2.362 1.724-.136L29.228 5zM29.989 5l.131 2.166 2.048-.162L32.051 5zM32.813 5l.114 1.943 1.738-.137L34.543 5zM35.305 5l.118 1.745 1.936-.153L37.247 5zM38.01 5l.108 1.532 2.281-.181-.1-1.351zM11.105 37.197l1.925-1.086-1.429-.364c-.073.432-.225 1.086-.496 1.45zM15.15 43.348l-.525-.393-.902 1.141L12.6 46h6.782l1.706-2.911s-5.876.299-5.938.259zM13.468 36.737l-2.326 1.313c1.052-.356 1.845-.592 2.519-.729zM21.807 12.206l-1.927.14.616 7.598 1.859-.134zM20.688 22.316c.032.008.084.019.146.029.057-.046 1.289-.108 1.691-.18l-.115-1.597-1.852.134z"/>
    <path d="M20.597 34.134c.913-1.052 1.33-1.531 1.783-2.495.385-.819.384-2.823.349-3.609-.264.705-.524 1.344-.711 1.659-.674 1.148-3.617 3.729-3.95 4.019-.738.643-2.121 1.399-3.127 1.91l4.919-.628c.274-.324.52-.607.737-.856zM15.369 42.632l5.055-.223v-3.144l-2.322-.239-2.988 3.439zM14.42 37.198c1.042-.112 1.922.033 3.384.314a77.73 77.73 0 011.335-1.663l-4.956.631zM16.605 39.474l-3.666 1.571 1.536 1.003zM15.108 39.286l2.441-1.047c-1.228-.237-2.004-.369-2.885-.298zM23.085 27.052l-.091.254.12-.245-.029-.009zM38.951 14.967c.656-.302 1.343-.621 1.962-.914l-4.92.051.449 5.75c.253.176.526.318.624.32.324.033.805-.045.805-.045a.39.39 0 01.219.045l.951.52a.379.379 0 01-.125-.243s-.289-2.87-.386-3.761c-.107-1 .226-1.531.264-1.589a.37.37 0 01.157-.134zM34.72 7.563l-1.748.139.332 5.668 1.868-.019zM32.213 7.763l-2.046.162.329 5.474 2.047-.021zM9.914 20.712l9.824-.713-.617-7.599s-9.678.605-9.678.623c.069 1.097.301 4.872.471 7.689zM40.456 7.109l-2.284.181.424 6.025 2.318-.023zM37.412 7.35l-1.934.154.456 5.839 1.899-.019zM29.408 7.985l-1.717.136.379 5.303 1.665-.017zM25.819 17.753a.37.37 0 01-.015.124L23.778 25l-.234.711.03.413 4.496-9.161c-.04.018-.081.037-.127.037h-.027a.382.382 0 01-.379-.355l-.175-2.451-1.727.017zM26.933 8.182l-1.728.136.387 5.131 1.716-.017z"/>
    <path d="M25.331 24.272l4.495 2.374c.513.039 2.748.222 3.371.415.477.148 1.354.15 1.653.136a.4.4 0 01.108.013c.113.027.345.056.481.009.132-.053.795-.493 1.233-.783.79-.523 1.074-.711 1.233-.777l.005-1.784a.38.38 0 01.271-.363l1.861-.556.002-.829-.021-.029-2.199-1.167c-.17.012-.497.069-.751.069h-.009c-.441 0-1.046-.475-1.221-.609a.413.413 0 01-.146-.287l-.467-5.984-4.94.047zM28.291 16.511l1.148-2.34-1.314.014zM33.365 42.737c-.754.265-1.608.254-1.614.265-.252-.037-1.941-.318-2.36-.478-.157-.048-.81.094-1.372.295a.342.342 0 01-.11.022l-5.911.261L20.269 46H42v-7.073l-5.692 2.326c-.053.032-2.228 1.23-2.943 1.484zM11.532 5l.659 7.138 9.56-.691L21.286 5zM32 31.5c-.825 0-1.5.674-1.5 1.5s.675 1.5 1.5 1.5c.826 0 1.501-.674 1.501-1.5s-.675-1.5-1.501-1.5z"/>
  </g>
</svg>
